# xmcd
# Track frame offsets:
# 150
# 16435
# 29603
# 48881
# 64171
# 76211
# 88012
# 105038
# 122240
#
# Disc length: 1855 seconds
# Revision: 0
# Processed by: cddbd v1.5.2PL0 Copyright (c) Steve Scherf et al.
# Submitted via: VisiTrax 2.11.1.266 - For more info visit www.synapsa.com
#
DISCID=67073d09
DTITLE=Various Artist - TexMix - 2009 Summer
DYEAR=2009
DGENRE=Country
TTITLE0=Charlie Robison - Nothin' Better to Do
TTITLE1=Ben Kweller - Fight
TTITLE2=Jonathan Tyler - Gypsy Woman
TTITLE3=Micky and the Motorcars - Bloodshot
TTITLE4=Electric Touch - Love in Our Hearts
TTITLE5=Dale Watson - I Got to Drive
TTITLE6=Spain Colored Orange - Who Am I?
TTITLE7=Buttercup - Always Alcohol
TTITLE8=Luke Olson - Hello My Old Friend
EXTD=Indie Bash at the Brewery\nSubmitted by Larry@LosSenderosStudio.com
EXTT0=
EXTT1=
EXTT2=
EXTT3=
EXTT4=
EXTT5=
EXTT6=
EXTT7=
EXTT8=
PLAYORDER=
